<svg width="569" height="262" viewBox="0 0 569 262" fill="none" xmlns="http://www.w3.org/2000/svg">
<g filter="url(#filter0_dd_17_31)">
<path d="M270.244 196.264C287.492 196.264 297.804 191.383 301.179 181.622C302.428 177.993 303.991 168.232 305.866 152.338L314.677 75.7498H286.93L282.055 147.27L272.119 75.7498H244.372L261.057 164.352C262.182 169.984 262.745 173.613 262.745 175.24C262.745 177.242 262.12 178.494 260.87 178.994C259.62 179.495 257.183 179.745 253.558 179.745H251.871V196.264H270.244ZM368.859 181.81C371.734 181.81 374.328 181.528 376.64 180.965C378.952 180.402 380.921 179.37 382.546 177.868C385.92 174.489 387.92 169.796 388.545 163.789L388.586 163.197C388.684 161.449 388.732 157.705 388.732 151.963V99.2144C388.732 97.2121 388.67 95.0847 388.545 92.8321C388.42 90.5795 388.17 88.8274 387.795 87.576C386.795 83.3211 384.795 80.3802 381.796 78.7533C378.796 77.1264 374.609 76.313 369.234 76.313C364.235 76.313 360.516 76.6884 358.079 77.4393C355.642 78.1901 353.173 80.0673 350.674 83.0708V52.4729H321.801V181.622H348.986L350.674 173.55C353.048 176.804 355.548 178.994 358.173 180.12C360.798 181.247 364.36 181.81 368.859 181.81ZM355.173 164.728C353.173 164.728 351.924 163.758 351.424 161.818C350.924 159.878 350.674 156.406 350.674 151.4V105.972C350.674 101.968 350.799 98.7451 351.049 96.3048C351.299 93.8645 352.611 92.6443 354.986 92.6443C357.236 92.6443 358.61 93.5829 359.11 95.4601C359.61 97.3373 359.86 100.841 359.86 105.972V150.461C359.86 156.844 359.485 160.817 358.735 162.381C357.985 163.946 356.798 164.728 355.173 164.728ZM429.603 181.622V139.761C429.603 128.248 430.166 121.052 431.291 118.174C433.041 113.543 437.54 111.228 444.789 111.228H446.852V73.8726C442.102 74.3732 438.228 76.0001 435.228 78.7533C432.853 81.0059 430.541 84.6351 428.291 89.6409L429.603 75.7498H400.544V181.622H429.603ZM486.41 181.622V75.7498H454.913V181.622H486.41ZM516.782 181.81C520.657 181.81 524 181.247 526.813 180.12C529.625 178.994 532.468 176.929 535.343 173.926V181.622H564.215V52.4729H535.343V82.5076C532.843 79.7544 530.281 78.0337 527.656 77.3454C525.032 76.6571 521.469 76.313 516.97 76.313H512.283C509.908 76.313 508.064 76.532 506.752 76.97C505.44 77.408 504.346 78.0024 503.471 78.7533C500.596 81.3813 498.847 84.4786 498.222 88.0453C497.597 91.6119 497.284 96.8993 497.284 103.907V156.844C497.284 160.848 497.503 164.321 497.94 167.262C498.378 170.203 499.159 172.674 500.284 174.677C501.909 177.18 504.159 178.994 507.033 180.12C509.908 181.247 513.158 181.81 516.782 181.81ZM530.281 164.728C528.281 164.728 527.094 163.977 526.719 162.475C526.344 160.973 526.156 158.22 526.156 154.216V99.4022C526.156 94.8969 527.656 92.6443 530.656 92.6443C532.781 92.6443 534.093 93.3326 534.593 94.7092C535.093 96.0858 535.343 98.6513 535.343 102.406V151.4C535.343 154.528 535.156 157.532 534.781 160.41C534.406 163.289 532.906 164.728 530.281 164.728Z" fill="white"/>
<path d="M487.74 43.138C486.783 41.0677 485.413 39.2338 483.671 37.6929L482.242 36.4309C482.031 36.2513 481.697 36.3317 481.604 36.5869L480.966 38.3499C480.568 39.4559 479.837 40.5856 478.801 41.6964C478.733 41.7673 478.654 41.7862 478.6 41.7909C478.546 41.7956 478.463 41.7862 478.389 41.72C478.32 41.6633 478.286 41.5782 478.291 41.4931C478.472 38.6477 477.589 35.4383 475.655 31.9454C474.055 29.0432 471.831 26.7792 469.053 25.2005L467.026 24.0519C466.76 23.9007 466.422 24.0992 466.436 24.397L466.545 26.6657C466.618 28.2161 466.432 29.5868 465.99 30.7259C465.45 32.1203 464.674 33.4153 463.683 34.5781C462.986 35.3911 462.205 36.1237 461.351 36.7571C459.285 38.2837 457.581 40.2736 456.428 42.4999C455.265 44.7497 454.651 47.269 454.651 49.793C454.651 52.024 455.107 54.184 456.011 56.2212C456.884 58.1828 458.131 59.9505 459.717 61.463C461.307 62.9755 463.153 64.1666 465.209 64.9938C467.34 65.854 469.598 66.2889 471.929 66.2889C474.261 66.2889 476.519 65.854 478.649 64.9985C480.706 64.1714 482.556 62.985 484.142 61.4677C485.732 59.9552 486.979 58.1875 487.848 56.2259C488.751 54.1888 489.208 52.0287 489.208 49.7978C489.208 47.4912 488.717 45.2508 487.74 43.138Z" fill="#AD0101"/>
<path d="M172.748 181.998V105.548H186.252V181.998H233V0H186.252V65.0747H172.748V0H126V181.998H172.748Z" fill="#AD0101"/>
</g>
<g filter="url(#filter1_dd_17_31)">
<path d="M25.53 207.73C21.6033 207.73 17.8667 206.59 14.32 204.31C10.7733 202.03 8.11333 198.61 6.34 194.05C5.70666 192.403 5.32666 190.63 5.2 188.73C4.94666 186.957 4.82 185.183 4.82 183.41C4.82 181.637 5.13666 180.75 5.77 180.75C6.40333 180.75 6.72 181.257 6.72 182.27C6.72 188.223 8.24 192.72 11.28 195.76C14.1933 198.8 17.93 200.32 22.49 200.32C26.9233 200.32 31.23 199.053 35.41 196.52C39.4633 193.987 43.2633 190.757 46.81 186.83C52.7633 180.37 58.1467 173.023 62.96 164.79C67.9 156.43 72.3333 147.817 76.26 138.95C77.2733 136.797 78.73 133.377 80.63 128.69C82.53 123.877 84.62 118.683 86.9 113.11C89.18 107.41 91.3967 102.28 93.55 97.72C95.45 93.4133 97.0333 89.9933 98.3 87.46C99.6933 84.9267 101.53 82.7733 103.81 81C106.09 79.2267 109.51 77.4533 114.07 75.68C112.043 75.8067 110.143 75.9967 108.37 76.25C106.597 76.3767 105.203 76.44 104.19 76.44C99.3767 76.5667 94.5633 76.8833 89.75 77.39C84.9367 77.8967 80.63 78.8467 76.83 80.24C73.03 81.5067 70.3067 83.3433 68.66 85.75C67.52 87.3967 66.95 89.2967 66.95 91.45C66.95 93.6033 67.52 95.6933 68.66 97.72C69.8 99.7467 71.2567 101.203 73.03 102.09C73.2833 102.343 73.41 102.533 73.41 102.66C73.41 102.913 73.0933 103.23 72.46 103.61C71.9533 103.863 71.3833 103.927 70.75 103.8C69.7367 103.167 68.47 102.153 66.95 100.76C65.43 99.24 64.0367 97.6567 62.77 96.01C61.63 94.3633 60.87 92.97 60.49 91.83C59.9833 90.31 59.73 88.79 59.73 87.27C59.73 84.23 60.8067 81.76 62.96 79.86C65.24 77.96 68.1533 76.5033 71.7 75.49C75.2467 74.4767 79.0467 73.78 83.1 73.4C87.28 72.8933 91.27 72.64 95.07 72.64C98.9967 72.5133 102.353 72.45 105.14 72.45H125.66C125.913 72.45 126.04 72.5133 126.04 72.64C126.04 73.02 125.597 73.59 124.71 74.35C123.95 74.9833 123.443 75.3 123.19 75.3C119.643 75.4267 116.477 76.7567 113.69 79.29C111.03 81.8233 108.687 84.7367 106.66 88.03C104.76 91.1967 103.177 94.11 101.91 96.77C101.15 98.29 99.9467 100.76 98.3 104.18C96.78 107.473 95.07 111.273 93.17 115.58C91.3967 119.76 89.56 123.94 87.66 128.12C85.8867 132.3 84.3033 135.91 82.91 138.95C79.6167 146.55 76.5133 153.643 73.6 160.23C70.8133 166.69 67.71 172.77 64.29 178.47C60.87 184.17 56.6267 189.743 51.56 195.19C48.3933 198.61 44.4033 201.523 39.59 203.93C34.65 206.463 29.9633 207.73 25.53 207.73ZM87.4938 179.61C87.2404 179.61 86.7971 179.483 86.1638 179.23C85.5304 179.103 85.2137 178.85 85.2137 178.47C85.2137 178.343 85.2771 178.217 85.4037 178.09C85.5304 177.963 85.5938 177.9 85.5938 177.9C86.4804 177.647 86.8604 177.52 86.7338 177.52C86.7338 177.647 87.1771 177.583 88.0638 177.33C90.2171 176.57 92.0538 175.493 93.5738 174.1C95.2204 172.58 96.6138 170.807 97.7538 168.78C103.707 158.9 109.407 148.893 114.854 138.76C120.3 128.5 125.747 118.303 131.194 108.17C132.714 105.51 134.17 102.787 135.564 100C136.957 97.2133 138.35 94.4267 139.744 91.64C140.377 90.12 141.01 88.6 141.644 87.08C142.404 85.56 143.227 84.1033 144.114 82.71C145.127 80.9367 146.71 79.4167 148.864 78.15C151.144 76.7567 153.297 75.7433 155.324 75.11H150.764C148.23 75.11 144.747 75.3 140.314 75.68C136.007 75.9333 131.447 76.44 126.634 77.2C121.82 77.96 117.514 79.1 113.714 80.62C110.04 82.14 107.507 84.1667 106.114 86.7C104.847 88.98 104.214 91.1967 104.214 93.35C104.214 95.8833 104.784 97.5933 105.924 98.48C107.064 99.3667 107.634 99.9367 107.634 100.19C107.634 100.443 107.444 100.697 107.064 100.95C106.684 101.203 106.367 101.33 106.114 101.33C105.354 101.33 104.404 100.57 103.264 99.05C102.124 97.53 101.047 95.8833 100.034 94.11C99.1471 92.21 98.5771 90.9433 98.3238 90.31C97.9438 88.9167 97.7538 87.5233 97.7538 86.13C97.7538 82.71 98.8938 80.1133 101.174 78.34C103.58 76.44 106.494 75.11 109.914 74.35C113.334 73.59 116.754 73.1467 120.174 73.02C123.72 72.7667 126.634 72.64 128.914 72.64C135.247 72.64 141.58 72.5133 147.914 72.26C154.247 71.88 160.517 71.69 166.724 71.69C172.677 71.69 178.504 72.1333 184.204 73.02C190.03 73.78 195.287 75.3633 199.974 77.77C204.66 80.1767 208.397 83.5967 211.184 88.03C214.097 92.4633 215.554 98.29 215.554 105.51C215.554 112.097 214.287 118.873 211.754 125.84C209.347 132.68 206.307 138.823 202.634 144.27C187.18 167.45 165.52 179.04 137.654 179.04C133.347 179.04 128.914 178.597 124.354 177.71C119.92 176.823 115.74 175.367 111.814 173.34C110.927 172.833 109.977 172.453 108.964 172.2C108.077 171.82 107.127 171.63 106.114 171.63C103.96 171.63 101.807 172.327 99.6538 173.72C97.5004 174.987 95.4104 176.253 93.3838 177.52C91.3571 178.913 89.3938 179.61 87.4938 179.61ZM135.374 176.38C144.874 176.38 153.74 174.543 161.974 170.87C170.207 167.197 177.427 162.067 183.634 155.48C189.84 148.767 194.717 141.103 198.264 132.49C199.91 128.437 201.24 124.193 202.254 119.76C203.394 115.327 203.964 110.957 203.964 106.65C203.964 96.77 200.924 89.17 194.844 83.85C188.89 78.4033 181.037 75.68 171.284 75.68C168.877 75.68 166.344 75.9333 163.684 76.44C161.15 76.9467 159.06 78.15 157.414 80.05C155.767 82.0767 154.184 84.2933 152.664 86.7C151.27 89.1067 149.877 91.45 148.484 93.73C145.57 98.7967 142.784 104.053 140.124 109.5C137.59 114.82 134.994 120.077 132.334 125.27C128.154 133.25 124.037 141.293 119.984 149.4C119.097 151.173 118.147 153.01 117.134 154.91C116.247 156.683 115.36 158.457 114.474 160.23C114.22 160.863 113.967 161.56 113.714 162.32C113.46 162.953 113.334 163.713 113.334 164.6C113.334 166.247 113.84 167.64 114.854 168.78C115.867 169.92 116.944 170.997 118.084 172.01C120.49 173.783 123.277 174.987 126.444 175.62C129.61 176.127 132.587 176.38 135.374 176.38Z" fill="white"/>
</g>
<defs>
<filter id="filter0_dd_17_31" x="122" y="0" width="446.215" height="204.264" filterUnits="userSpaceOnUse" color-interpolation-filters="sRGB">
<feFlood flood-opacity="0" result="BackgroundImageFix"/>
<feColorMatrix in="SourceAlpha" type="matrix" values="0 0 0 0 0 0 0 0 0 0 0 0 0 0 0 0 0 0 127 0" result="hardAlpha"/>
<feOffset dy="4"/>
<feGaussianBlur stdDeviation="2"/>
<feComposite in2="hardAlpha" operator="out"/>
<feColorMatrix type="matrix" values="0 0 0 0 0 0 0 0 0 0 0 0 0 0 0 0 0 0 0.25 0"/>
<feBlend mode="normal" in2="BackgroundImageFix" result="effect1_dropShadow_17_31"/>
<feColorMatrix in="SourceAlpha" type="matrix" values="0 0 0 0 0 0 0 0 0 0 0 0 0 0 0 0 0 0 127 0" result="hardAlpha"/>
<feOffset dy="4"/>
<feGaussianBlur stdDeviation="2"/>
<feComposite in2="hardAlpha" operator="out"/>
<feColorMatrix type="matrix" values="0 0 0 0 0 0 0 0 0 0 0 0 0 0 0 0 0 0 0.25 0"/>
<feBlend mode="normal" in2="effect1_dropShadow_17_31" result="effect2_dropShadow_17_31"/>
<feBlend mode="normal" in="SourceGraphic" in2="effect2_dropShadow_17_31" result="shape"/>
</filter>
<filter id="filter1_dd_17_31" x="0.819992" y="71.69" width="218.734" height="144.04" filterUnits="userSpaceOnUse" color-interpolation-filters="sRGB">
<feFlood flood-opacity="0" result="BackgroundImageFix"/>
<feColorMatrix in="SourceAlpha" type="matrix" values="0 0 0 0 0 0 0 0 0 0 0 0 0 0 0 0 0 0 127 0" result="hardAlpha"/>
<feOffset dy="4"/>
<feGaussianBlur stdDeviation="2"/>
<feComposite in2="hardAlpha" operator="out"/>
<feColorMatrix type="matrix" values="0 0 0 0 0 0 0 0 0 0 0 0 0 0 0 0 0 0 0.25 0"/>
<feBlend mode="normal" in2="BackgroundImageFix" result="effect1_dropShadow_17_31"/>
<feColorMatrix in="SourceAlpha" type="matrix" values="0 0 0 0 0 0 0 0 0 0 0 0 0 0 0 0 0 0 127 0" result="hardAlpha"/>
<feOffset dy="4"/>
<feGaussianBlur stdDeviation="2"/>
<feComposite in2="hardAlpha" operator="out"/>
<feColorMatrix type="matrix" values="0 0 0 0 0 0 0 0 0 0 0 0 0 0 0 0 0 0 0.25 0"/>
<feBlend mode="normal" in2="effect1_dropShadow_17_31" result="effect2_dropShadow_17_31"/>
<feBlend mode="normal" in="SourceGraphic" in2="effect2_dropShadow_17_31" result="shape"/>
</filter>
</defs>
</svg>
